<?xml version="1.0" encoding="UTF-8"?>
<svg width="100px" height="100px" viewBox="0 0 100 100" version="1.1" xmlns="http://www.w3.org/2000/svg" xmlns:xlink="http://www.w3.org/1999/xlink">
    <!-- Generator: Sketch 46.2 (44496) - http://www.bohemiancoding.com/sketch -->
    <title>mic</title>
    <desc>Created with Sketch.</desc>
    <defs>
        <path d="M43,45.7377049 L43,41.6721311 L15,41.6721311 L15,45.7377049 L43,45.7377049 Z M42.9536453,49.8032787 C42.3699164,56.6313977 36.3456175,62 29,62 C21.6543825,62 15.6300836,56.6313977 15.0463547,49.8032787 L42.9536453,49.8032787 Z M43,37.6065574 L43,33.5409836 L15,33.5409836 L15,37.6065574 L43,37.6065574 Z M43,29.4754098 L43,25.4098361 L15,25.4098361 L15,29.4754098 L43,29.4754098 Z M43,21.3442623 L43,17.2786885 L15,17.2786885 L15,21.3442623 L43,21.3442623 Z M15.0002046,13.2131148 C15.041387,5.90902136 21.2935304,0 29,0 C36.7064696,0 42.958613,5.90902136 42.9997954,13.2131148 L15.0002046,13.2131148 Z" id="path-1"></path>
    </defs>
    <g id="Page-1" stroke="none" stroke-width="1" fill="none" fill-rule="evenodd">
        <g id="mic">
            <g id="Group" transform="translate(21.000000, 7.000000)">
                <g id="Combined-Shape">
                    <use fill="#000000" fill-rule="evenodd" xlink:href="#path-1"></use>
                    <path stroke="#000000" stroke-width="3" d="M16.5,44.2377049 L15,44.2377049 L16.5,45.7377049 L16.5,44.2377049 Z M16.5,43.1721311 L16.5,41.6721311 L15,43.1721311 L16.5,43.1721311 Z M41.5,43.1721311 L43,43.1721311 L41.5,41.6721311 L41.5,43.1721311 Z M41.5,44.2377049 L41.5,45.7377049 L43,44.2377049 L41.5,44.2377049 Z M41.5,44.2377049 L16.5,44.2377049 L16.5,43.1721311 L41.5,43.1721311 L41.5,44.2377049 Z M41.197793,51.3032787 L16.802207,51.3032787 C18.0554451,56.5790739 23.0572273,60.5 29,60.5 C34.9427727,60.5 39.9445549,56.5790739 41.197793,51.3032787 Z M16.5,36.1065574 L15,36.1065574 L16.5,37.6065574 L16.5,36.1065574 Z M16.5,35.0409836 L16.5,33.5409836 L15,35.0409836 L16.5,35.0409836 Z M41.5,35.0409836 L43,35.0409836 L41.5,33.5409836 L41.5,35.0409836 Z M41.5,36.1065574 L41.5,37.6065574 L43,36.1065574 L41.5,36.1065574 Z M41.5,36.1065574 L16.5,36.1065574 L16.5,35.0409836 L41.5,35.0409836 L41.5,36.1065574 Z M16.5,27.9754098 L15,27.9754098 L16.5,29.4754098 L16.5,27.9754098 Z M16.5,26.9098361 L16.5,25.4098361 L15,26.9098361 L16.5,26.9098361 Z M41.5,26.9098361 L43,26.9098361 L41.5,25.4098361 L41.5,26.9098361 Z M41.5,27.9754098 L41.5,29.4754098 L43,27.9754098 L41.5,27.9754098 Z M41.5,27.9754098 L16.5,27.9754098 L16.5,26.9098361 L41.5,26.9098361 L41.5,27.9754098 Z M16.5,19.8442623 L15,19.8442623 L16.5,21.3442623 L16.5,19.8442623 Z M16.5,18.7786885 L16.5,17.2786885 L15,18.7786885 L16.5,18.7786885 Z M41.5,18.7786885 L43,18.7786885 L41.5,17.2786885 L41.5,18.7786885 Z M41.5,19.8442623 L41.5,21.3442623 L43,19.8442623 L41.5,19.8442623 Z M41.5,19.8442623 L16.5,19.8442623 L16.5,18.7786885 L41.5,18.7786885 L41.5,19.8442623 Z M16.6104684,11.7131148 L41.3895316,11.7131148 C40.5746658,5.95912966 35.350057,1.5 29,1.5 C22.649943,1.5 17.4253342,5.95912966 16.6104684,11.7131148 Z"></path>
                </g>
                <path d="M49,18.1396352 C49,24.7256033 49,34.3385793 49,46.9785633 C49,57.0555106 41.432862,65.3784933 31.6301949,66.6564311 C31.2369124,66.707702 31.2369124,72.452579 31.6301949,83.8910623 L26.8066125,83.8910623 C27.1600618,72.4743072 27.1600618,66.746799 26.8066125,66.7085377 C16.7928436,65.6245351 9,57.2046894 9,46.9785633 C9,34.3649951 9,24.7520191 9,18.1396352" id="Combined-Shape" stroke="#000000" stroke-width="3" stroke-linecap="round" stroke-linejoin="round"></path>
                <path d="M0,84.0820416 L58,84.0820416" id="Line-2" stroke="#000000" stroke-width="3" stroke-linecap="round"></path>
            </g>
        </g>
    </g>
</svg>